# xmcd
#
# Track frame offsets:
#	150
#	13890
#	36894
#	53702
#	70641
#	90598
#	104652
#	122324
#	140937
#	166132
#	185723
#	204456
#
# Disc length: 2974 seconds
#
# Revision: 1
# Processed by: cddbd v1.5.2PL0 Copyright (c) Steve Scherf et al.
# Submitted via: audiograbber 1.83.01
#
DISCID=a70b9c0c
DTITLE=The Fourteen Cousins - The Fourteen Cousins
DYEAR=2007
DGENRE=Americana
TTITLE0=Watchin' The River Flow
TTITLE1=Annabelle
TTITLE2=A Few More Of Your Lines
TTITLE3=Since I Met You Baby
TTITLE4=Heart Of Darkness
TTITLE5=Passenger Side
TTITLE6=From A Buick Six
TTITLE7=That Was Your Mother
TTITLE8=Wichita
TTITLE9=Long Black Veil
TTITLE10=Man In The Long Black Coat
TTITLE11=Albuquerque
EXTD=
EXTT0=
EXTT1=
EXTT2=
EXTT3=
EXTT4=
EXTT5=
EXTT6=
EXTT7=
EXTT8=
EXTT9=
EXTT10=
EXTT11=
PLAYORDER=
